<svg width="12" height="13" viewBox="0 0 12 13" fill="none" xmlns="http://www.w3.org/2000/svg">
<path d="M4 4.5V3.1C4 2.53995 4 2.25992 4.10899 2.04601C4.20487 1.85785 4.35785 1.70487 4.54601 1.60899C4.75992 1.5 5.03995 1.5 5.6 1.5H9.4C9.96005 1.5 10.2401 1.5 10.454 1.60899C10.6422 1.70487 10.7951 1.85785 10.891 2.04601C11 2.25992 11 2.53995 11 3.1V6.9C11 7.46005 11 7.74008 10.891 7.95399C10.7951 8.14215 10.6422 8.29513 10.454 8.39101C10.2401 8.5 9.96005 8.5 9.4 8.5H8M2.6 11.5H6.4C6.96005 11.5 7.24008 11.5 7.45399 11.391C7.64215 11.2951 7.79513 11.1422 7.89101 10.954C8 10.7401 8 10.4601 8 9.9V6.1C8 5.53995 8 5.25992 7.89101 5.04601C7.79513 4.85785 7.64215 4.70487 7.45399 4.60899C7.24008 4.5 6.96005 4.5 6.4 4.5H2.6C2.03995 4.5 1.75992 4.5 1.54601 4.60899C1.35785 4.70487 1.20487 4.85785 1.10899 5.04601C1 5.25992 1 5.53995 1 6.1V9.9C1 10.4601 1 10.7401 1.10899 10.954C1.20487 11.1422 1.35785 11.2951 1.54601 11.391C1.75992 11.5 2.03995 11.5 2.6 11.5Z" stroke="#64748B" stroke-linecap="round" stroke-linejoin="round"/>
</svg>
