<svg width="10" height="11" viewBox="0 0 10 11" fill="none" xmlns="http://www.w3.org/2000/svg">
<path d="M9.5 4L9.5 1M9.5 1H6.5M9.5 1L5.5 5M4 2H2.9C2.05992 2 1.63988 2 1.31901 2.16349C1.03677 2.3073 0.8073 2.53677 0.66349 2.81901C0.5 3.13988 0.5 3.55992 0.5 4.4V7.6C0.5 8.44008 0.5 8.86012 0.66349 9.18099C0.8073 9.46323 1.03677 9.6927 1.31901 9.83651C1.63988 10 2.05992 10 2.9 10H6.1C6.94008 10 7.36012 10 7.68099 9.83651C7.96323 9.6927 8.1927 9.46323 8.33651 9.18099C8.5 8.86012 8.5 8.44008 8.5 7.6V6.5" stroke="#006EFF" stroke-linecap="round" stroke-linejoin="round"/>
</svg>
