<svg width="40" height="40" viewBox="0 0 40 40" fill="none" xmlns="http://www.w3.org/2000/svg">
<path d="M21.4 21.8001H30L31.0105 20.0001M21.4 21.8001L24.6 16.3001L17.7 4.6001M21.4 21.8001L20.2 19.8001M17.7 4.6001H26.8L30.1578 10.4001M17.7 4.6001L16.1 7.4001M36.6 18.0001L33.3 23.8001M36.6 18.0001L32.2 10.4001H30.1578M36.6 18.0001H32.2052M33.3 23.8001L31.0105 20.0001M33.3 23.8001L34.4 25.8001M31.0105 20.0001L32.2052 18.0001M20.2 19.8001L21.3 18.0001M20.2 19.8001H17.7M21.3 18.0001L16.8 10.2001M21.3 18.0001C21.3 18.0001 18.0812 12.4259 16.8 10.2001M21.3 18.0001H14.2005L7.59995 29.6001M16.8 10.2001H14.5M16.8 10.2001H13.3M14.5 10.2001H13.3M14.5 10.2001L16.1 7.4001M11 10.2001L9.39995 7.4001M11 10.2001H9.89995L6.48499 16.1126M11 10.2001H13.3M9.39995 7.4001L5.39995 14.2001L6.48499 16.1126M9.39995 7.4001H16.1M7.59995 29.6001L3.19995 21.8001L6.48499 16.1126M7.59995 29.6001H9.99995M17.7 19.8001L13.2 27.6001L14.3938 29.6001M17.7 19.8001L21.2 25.8001H34.4M14.3938 29.6001L15.5622 31.6633M14.3938 29.6001H9.99995M15.5622 31.6633L13.3 35.4001M15.5622 31.6633L16.7346 33.4312H23.3M13.3 35.4001L9.99995 29.6001M13.3 35.4001L22.143 35.375L23.3 33.4312M23.3 33.4312H29.999L34.4 25.8001M30.1578 10.4001L33.4 16.0001L32.2052 18.0001" stroke="#735EA1" stroke-width="2" stroke-linejoin="round"/>
</svg>
