<svg width="21" height="16" viewBox="0 0 21 16" fill="none" xmlns="http://www.w3.org/2000/svg">
<path d="M20.0326 0.064132C19.9444 -0.0033651 19.819 -0.0190248 19.7127 0.0240265L0.504636 7.81627C0.401227 7.85823 0.334635 7.94832 0.333392 8.04786C0.332149 8.1474 0.39655 8.23872 0.498954 8.2826L5.9348 10.6118C6.03448 10.6546 6.15334 10.6449 6.24237 10.5868L11.5275 7.13783L7.37845 10.8641C7.31926 10.9173 7.28907 10.9901 7.29559 11.064L7.70869 15.7614C7.71787 15.8655 7.79778 15.9545 7.91137 15.9871C7.94173 15.9958 7.97293 16 8.00377 16C8.08835 16 8.17063 15.9683 8.22787 15.9104L11.113 12.9913L14.6797 14.4792C14.7571 14.5116 14.8467 14.5129 14.9254 14.483C15.0041 14.4531 15.064 14.3949 15.0897 14.3235L20.1198 0.335826C20.1549 0.238146 20.1206 0.131629 20.0326 0.064132Z" fill="white"/>
</svg>
